PathFileType	4	(X/Y/Z)	walk-thru1-1-TP.trc
DataRate	CameraRate	NumFrames	NumMarkers	Units	OrigDataRate	OrigDataStartFrame	OrigNumFrames
120.00	120.00	       4	60	mm	120.00	1	       432
Frame#	Time	Top.Head			Front.Head			Rear.Head			Jaw			C7			R.Clavicle			L.Clavicle			R.Shoulder			L.Shoulder			R.Scapula			L.Scapula			R.Scap.Inf			R.Biceps.Lateral			R.Elbow			R.Elbow.Medial			R.Forearm			R.Ulna			R.Radius			R.Wrist			R.Thumb.M1			R.Thumb.M2			R.Thumb.M3			R.Finger3.M1			R.Finger3.M2			R.Finger3.M3			L.Biceps.Lateral			L.Elbow			L.Elbow.Medial			L.Forearm			L.Ulna			L.Radius			L.Wrist			L.Thumb.M1			L.Thumb.M2			L.Thumb.M3			L.Finger3.M1			L.Finger3.M2			L.Finger3.M3			V.Sacral			R.ASIS			L.ASIS			R.Thigh			R.Thigh.Front			R.Knee			R.Knee.Medial			R.Shank			R.Ankle			R.Ankle.Medial			R.Heel			R.Toe			R.MedFoot			L.Thigh			L.Knee			L.Knee.Medial			L.Shank			L.Ankle			L.Ankle.Medial			L.Heel			L.Toe			L.MedFoot			V_mid_ASIS			V_R_Knee_JC			V_L_Knee_JC			V_R_Elbow_JC			V_L_Elbow_JC			V_R_Ankle_JC			V_L_Ankle_JC			V_R_Wrist_JC			V_L_Wrist_JC			V_R_ScaTrpz_1stMC_JC			V_R_1stMC_1stPP_JC			V_R_1stPP_1stDP_JC			V_R_LunCap_3rdMC_JC			V_R_3rdMC_3rdPP_JC			V_R_3rdPP_3rdMP_JC			V_R_3rdMP_3rdDP_JC			V_L_ScaTrpz_1stMC_JC			V_L_1stMC_1stPP_JC			V_L_1stPP_1stDP_JC			V_L_LunCap_3rdMC_JC			V_L_3rdMC_3rdPP_JC			V_L_3rdPP_3rdMP_JC			V_L_3rdMP_3rdPP_JC			V_ROOT_JC			V_R_Hip_JC			V_L_Hip_JC			V_R_GlenHum_JC			V_L_GlenHum_JC			V_ForeHead_Ctr			V_Vertex			V_Sagit_Lambdoid_Suture			V_R_FrontoTemp			V_L_FrontoTemporal			V_R_ParietalOccip			V_L_ParietalOcciptal			V_R_Temporal			V_L_Temporal			V_mid_FrontRearHead			V_mid_RLGlenHumCtrs			V_C7_vert			V_C1_vert			V_Mid_Hip			
		X1	Y1	Z1	X2	Y2	Z2	X3	Y3	Z3	X4	Y4	Z4	X5	Y5	Z5	X6	Y6	Z6	X7	Y7	Z7	X8	Y8	Z8	X9	Y9	Z9	X10	Y10	Z10	X11	Y11	Z11	X12	Y12	Z12	X13	Y13	Z13	X14	Y14	Z14	X15	Y15	Z15	X16	Y16	Z16	X17	Y17	Z17	X18	Y18	Z18	X19	Y19	Z19	X20	Y20	Z20	X21	Y21	Z21	X22	Y22	Z22	X23	Y23	Z23	X24	Y24	Z24	X25	Y25	Z25	X26	Y26	Z26	X27	Y27	Z27	X28	Y28	Z28	X29	Y29	Z29	X30	Y30	Z30	X31	Y31	Z31	X32	Y32	Z32	X33	Y33	Z33	X34	Y34	Z34	X35	Y35	Z35	X36	Y36	Z36	X37	Y37	Z37	X38	Y38	Z38	X39	Y39	Z39	X40	Y40	Z40	X41	Y41	Z41	X42	Y42	Z42	X43	Y43	Z43	X44	Y44	Z44	X45	Y45	Z45	X46	Y46	Z46	X47	Y47	Z47	X48	Y48	Z48	X49	Y49	Z49	X50	Y50	Z50	X51	Y51	Z51	X52	Y52	Z52	X53	Y53	Z53	X54	Y54	Z54	X55	Y55	Z55	X56	Y56	Z56	X57	Y57	Z57	X58	Y58	Z58	X59	Y59	Z59	X60	Y60	Z60	

1	0.000	1433.57642	62.32545	1811.68945	1329.16455	48.38571	1704.05945	1556.46936	63.19643	1709.20068	1368.42053	49.10599	1537.60986	1565.06885	59.86192	1575.88647	1460.17151	170.37308	1480.10754	1464.04016	-57.30560	1486.25696	1497.06030	259.69241	1474.94934	1540.65234	-149.48227	1499.98303	1610.17212	152.70439	1493.08972	1620.14783	-13.81008	1499.06116	1658.72595	165.01738	1406.47485	1533.76099	322.63049	1296.46313	1555.67175	345.19629	1142.63733	1579.56787	257.45206	1120.70740	1459.90466	283.35779	1039.17212	1471.09314	328.90997	935.31366	1413.77600	258.98071	917.76123	1404.61072	296.19537	868.15021	1399.79797	251.66853	885.32196	1363.70886	211.37209	850.74304	1325.35095	199.52742	829.10095	1353.95166	288.98178	805.91553	1336.43896	245.67033	756.58356	1348.75745	204.88190	729.93048	1581.78503	-206.97345	1351.75562	1616.16479	-249.47905	1178.57373	1650.96497	-176.64670	1165.80798	1556.08472	-234.18938	1070.04492	1617.81274	-250.34749	985.48505	1547.05737	-211.76509	926.64642	1564.47656	-242.41319	870.51190	1547.39172	-201.49808	862.09943	1540.86829	-163.02693	815.75293	1535.39551	-167.26941	755.42230	1554.95264	-254.18362	794.61420	1564.68066	-234.21648	738.14996	1586.44556	-209.47314	696.52307	1663.15759	50.32842	1103.43872	1565.48145	234.27992	1040.69263	1567.64368	-141.60083	1043.43689	1511.68872	171.96608	636.23627	1438.88037	80.81509	564.29865	1493.79761	137.06117	504.03018	1503.38672	23.64491	512.33459	1511.30945	79.45101	322.54126	1639.26172	104.20251	83.84389	1607.25415	7.69370	107.07563	1699.84363	48.64042	66.91309	1460.08411	55.02736	52.12065	1531.75671	21.03610	77.45468	1442.03027	-151.26442	678.24518	1404.58765	-138.83377	530.69891	1400.66052	-17.05662	522.93909	1475.17432	-91.45118	343.14520	1663.51184	-117.96539	161.75989	1618.39111	-26.10503	181.64911	1716.91772	-57.93105	172.24518	1518.61816	-67.35501	67.90564	1556.75342	-41.98760	110.52631																																																																																																																															
2	0.008	1429.40417	62.28256	1812.58643	1322.72803	46.89751	1705.55066	1549.63696	64.19991	1709.77698	1361.53638	48.82326	1538.86499	1558.38635	59.75166	1577.04846	1453.73706	170.08205	1480.10779	1459.80310	-57.24326	1486.40247	1490.92346	259.84958	1475.28308	1535.65698	-147.95834	1500.94385	1605.20532	152.37126	1493.47034	1614.25220	-14.79262	1499.63037	1653.10107	164.14218	1406.57495	1525.25476	323.46161	1295.79236	1548.48828	346.04584	1142.06116	1572.44202	257.65317	1121.74915	1453.20923	282.93103	1040.35876	1463.09985	327.86224	936.88928	1406.20178	257.47128	917.45996	1396.23022	297.59637	868.95642	1391.78418	249.57698	886.85999	1355.94934	209.00372	852.45654	1316.29297	199.74612	831.68384	1344.30396	289.17780	808.13831	1326.68359	246.66862	758.49036	1340.84607	203.96167	730.14850	1576.10791	-206.10497	1352.96863	1609.66821	-249.04240	1179.42102	1644.99622	-175.92009	1166.38843	1550.33716	-236.18277	1070.26489	1611.39307	-250.49376	985.66339	1542.91907	-210.81284	927.22644	1560.96228	-242.28130	870.94781	1539.46362	-200.95244	864.21570	1534.86230	-163.01178	816.34430	1536.48682	-165.77544	754.49536	1550.14709	-256.21588	795.08606	1559.74451	-235.07381	738.67480	1580.34253	-209.22499	696.74414	1656.38647	49.72329	1103.43787	1560.34790	233.74861	1041.75073	1563.80164	-141.42178	1043.74548	1508.93958	172.95706	636.77008	1435.55591	80.86086	563.00946	1492.22766	137.09610	503.86105	1500.31348	25.22482	512.47162	1509.74805	82.40591	324.40359	1638.77930	104.12383	84.06937	1605.08838	8.23822	108.16321	1699.84570	48.38070	67.55792	1459.74939	54.83833	52.74499	1531.68518	20.95820	77.50309	1433.15466	-150.67409	679.02942	1394.24658	-138.19078	532.39832	1391.83594	-18.10193	524.67108	1461.95630	-90.26978	343.01205	1644.43921	-120.12950	155.21475	1597.73633	-27.44810	177.17502	1700.46033	-58.64911	165.54094	1496.14526	-66.27184	66.89457	1534.81311	-41.56707	107.36999																																																																																																																															
3	0.017	1421.79883	62.49653	1812.84436	1317.58667	48.21400	1704.85522	1544.59070	63.06165	1710.40845	1355.85803	48.33035	1539.61157	1552.50513	60.14064	1576.60242	1448.40271	170.70305	1480.16687	1451.66577	-57.71881	1487.49451	1485.13098	259.47028	1476.70471	1528.46680	-149.26649	1499.63196	1598.78259	153.14706	1493.06812	1608.22034	-14.79244	1499.39673	1647.16455	164.92616	1406.91455	1520.05127	322.19275	1296.35608	1541.91089	345.11050	1142.03186	1567.42017	257.93323	1121.72681	1445.22644	282.85931	1042.15100	1454.72253	327.00607	938.31921	1398.70154	258.41495	919.23572	1388.51367	296.19980	870.12164	1382.49353	251.24164	888.51587	1347.43347	208.83165	852.87640	1308.57947	198.45755	832.46008	1335.77014	288.25479	809.29700	1318.56555	247.17555	760.38641	1330.48706	201.77051	731.54541	1570.21667	-206.43208	1353.67151	1604.54407	-249.61610	1179.96204	1638.42517	-176.83029	1166.58105	1543.35181	-233.29256	1070.13354	1605.92688	-250.75148	987.18384	1533.17993	-210.69629	928.50104	1554.53882	-244.99846	871.09796	1532.44507	-201.22058	865.29193	1528.21326	-163.00064	815.98627	1525.61475	-165.73141	755.44702	1543.67712	-255.20110	795.80426	1554.14075	-234.96622	739.96277	1574.37524	-210.09654	697.42609	1650.48022	50.06238	1104.08923	1554.41992	232.91638	1043.12073	1556.54797	-142.22150	1044.20007	1505.28967	173.41942	636.65625	1433.13037	81.60828	563.40106	1490.45630	137.31471	504.40253	1498.15063	24.37742	512.52930	1507.58374	82.85763	324.69312	1638.65955	104.09460	84.80342	1607.25415	7.69370	107.07563	1699.82349	48.28021	68.10367	1460.12280	55.07042	52.57099	1530.93311	20.86974	77.76173	1424.82373	-150.61320	679.91321	1384.64954	-138.33559	533.69611	1383.55798	-18.43787	526.37634	1448.09888	-90.37545	342.17267	1623.91748	-118.66894	149.11789	1580.51062	-27.00591	172.87793	1679.40613	-57.71031	157.93233	1474.61279	-65.89937	65.77026	1513.84253	-41.79538	105.08546																																																																																																																															
4	0.025	1417.18250	62.18177	1814.85876	1311.34033	48.34778	1706.25574	1538.80505	64.60587	1710.33325	1349.50537	47.83434	1539.48364	1547.06946	59.16152	1576.81360	1442.85156	169.84584	1479.79712	1446.22473	-57.31877	1487.81641	1477.88611	259.82822	1477.28845	1523.24585	-148.79813	1500.53137	1592.48132	152.80850	1494.35986	1602.80579	-14.73567	1499.57703	1641.07642	164.59142	1406.62219	1514.74939	322.88483	1296.46875	1535.11548	345.77130	1141.67920	1560.01477	257.83484	1121.64221	1439.26147	282.71127	1042.12061	1447.93384	327.44299	938.42352	1390.88220	257.47867	919.90790	1380.55676	296.94495	871.38043	1375.52979	249.48273	889.24170	1338.12939	211.20792	854.65942	1300.47668	197.08900	835.23688	1327.27319	288.59601	809.58960	1309.91479	245.08942	760.93652	1322.27197	203.66629	733.75122	1563.87854	-207.89262	1352.77100	1598.80701	-249.79361	1180.65076	1633.01074	-176.95305	1167.10742	1538.19958	-236.27626	1069.87598	1599.73376	-249.89172	986.63898	1526.87708	-208.90071	929.15643	1547.57080	-244.83029	870.39191	1519.25073	-196.77333	866.60803	1523.18433	-163.17326	816.55145	1523.50330	-165.79175	755.19928	1538.37024	-258.02475	795.36420	1548.36951	-235.25545	740.92267	1568.15698	-210.01840	697.44989	1644.21008	49.34945	1104.00769	1547.44006	231.80812	1042.71362	1547.88208	-143.74283	1045.45752	1502.76794	173.54565	636.80457	1430.65552	82.31792	562.58759	1488.68933	137.06516	504.17001	1497.28735	23.48199	513.52667	1505.71338	83.38493	324.07471	1637.93579	104.07472	84.81664	1608.90356	7.11505	106.44245	1699.39355	48.17313	69.34524	1460.09937	55.07562	52.14698	1530.41882	21.02061	77.96616	1417.93018	-149.91698	680.61676	1376.30042	-136.41350	534.33972	1374.98169	-17.93251	527.00305	1433.07214	-89.11739	341.21506	1605.28308	-120.88962	144.65262	1562.55103	-27.31755	168.64244	1658.44971	-59.23613	150.58112	1451.74646	-65.11776	66.26150	1494.15051	-39.77523	102.88240																																																																																																																															
